<svg width="763" height="92" viewBox="0 0 763 92" fill="none" xmlns="http://www.w3.org/2000/svg">
<path d="M47.4055 91.536C22.1895 91.536 0.6855 70.672 0.6855 45.968C0.6855 21.264 22.1895 0.527992 47.4055 0.527992C60.7175 0.527992 73.0055 6.16 81.5815 15.248L67.8855 27.536C62.7655 21.648 55.4695 17.68 47.4055 17.68C32.6855 17.68 20.1415 30.736 20.1415 45.968C20.1415 61.328 32.6855 74.384 47.4055 74.384C55.4695 74.384 62.7655 70.416 67.8855 64.528L81.5815 76.816C73.0055 85.776 60.7175 91.536 47.4055 91.536ZM122.323 22.288C139.603 22.288 151.379 33.168 151.379 50.448V90H133.331V83.344C128.595 88.72 121.043 91.536 113.875 91.536C99.7945 91.536 88.9145 83.088 88.9145 70.416C88.9145 57.36 101.075 48.4 116.435 48.4C121.811 48.4 127.699 49.552 133.331 51.728V50.448C133.331 43.408 128.979 37.264 118.099 37.264C111.955 37.264 106.195 39.312 100.947 42L94.6745 29.584C104.019 24.848 113.107 22.288 122.323 22.288ZM118.099 78.608C125.267 78.608 132.051 75.28 133.331 69.136V62.992C129.107 61.456 124.243 60.56 119.123 60.56C112.339 60.56 106.963 64.528 106.963 69.904C106.963 75.28 111.699 78.608 118.099 78.608ZM201.946 73.616L206.426 85.776C202.586 89.232 196.569 91.536 191.194 91.536C179.546 91.536 171.354 83.216 171.354 71.312V38.928H162.266V23.824H171.354V5.64799H189.274V23.824H203.61V38.928H189.274V68.368C189.274 72.72 192.09 75.792 195.546 75.792C198.106 75.792 200.666 74.896 201.946 73.616ZM249.362 75.024C254.61 75.024 261.01 72.592 264.594 69.136L276.498 81.296C270.61 87.44 259.218 91.536 249.49 91.536C229.778 91.536 214.418 77.072 214.418 56.72C214.418 36.752 229.138 22.288 248.466 22.288C269.202 22.288 281.362 38.032 281.362 62.992H233.618C235.794 70.16 241.554 75.024 249.362 75.024ZM249.234 38.8C242.194 38.8 236.306 42.896 233.874 49.552H263.442C261.65 43.024 256.786 38.8 249.234 38.8ZM312.693 36.112C317.045 27.536 325.237 22.288 335.349 22.288V38.032C321.525 38.032 312.693 45.968 312.693 58.384V90H294.005V23.824H312.693V36.112ZM370.962 91.536C360.338 91.536 349.074 87.952 341.138 81.552L349.202 68.624C355.09 72.848 362.514 76.048 371.346 76.048C376.338 76.048 379.922 74 379.922 71.056C379.922 66.96 375.058 65.68 368.274 63.888C354.706 60.56 344.21 56.848 344.082 43.792C343.954 31.248 354.322 22.288 369.938 22.288C379.41 22.288 388.754 25.616 396.05 30.48L388.498 43.792C382.482 40.08 375.569 37.904 369.938 37.904C365.33 37.904 362.13 39.568 362.13 41.872C362.13 45.456 364.818 46.48 373.778 48.912C385.17 51.856 397.842 55.696 397.842 70.16C397.842 83.216 387.218 91.536 370.962 91.536ZM454.156 91.536C428.94 91.536 407.436 70.672 407.436 45.968C407.436 21.264 428.94 0.527992 454.156 0.527992C467.468 0.527992 479.756 6.16 488.332 15.248L474.636 27.536C469.516 21.648 462.22 17.68 454.156 17.68C439.436 17.68 426.892 30.736 426.892 45.968C426.892 61.328 439.436 74.384 454.156 74.384C462.22 74.384 469.516 70.416 474.636 64.528L488.332 76.816C479.756 85.776 467.468 91.536 454.156 91.536ZM499.505 90V0.527992H518.193V90H499.505ZM567.017 91.536C547.305 91.536 530.793 75.664 530.793 56.848C530.793 38.032 547.305 22.288 567.017 22.288C586.601 22.288 602.985 38.032 602.985 56.848C602.985 75.664 586.601 91.536 567.017 91.536ZM567.017 75.792C576.873 75.792 585.193 67.088 585.193 56.848C585.193 46.608 576.873 38.032 567.017 38.032C557.033 38.032 548.713 46.608 548.713 56.848C548.713 67.088 557.033 75.792 567.017 75.792ZM659.534 23.824H678.222V90H659.534V81.68C655.566 87.696 648.142 91.536 639.566 91.536C625.23 91.536 614.99 80.912 614.99 65.936V23.824H633.038V61.968C633.038 70.16 638.158 75.792 645.582 75.792C653.39 75.792 659.406 70.16 659.406 62.992L659.534 63.376V23.824ZM743.663 0.527992H762.351V90H743.663V80.528C738.415 87.44 730.735 91.536 721.391 91.536C703.727 91.536 690.927 77.2 690.927 56.848C690.927 36.624 703.727 22.288 721.391 22.288C730.735 22.288 738.415 26.384 743.663 33.296V0.527992ZM726.767 75.792C736.623 75.792 743.663 67.984 743.663 56.848C743.663 45.84 736.623 38.032 726.767 38.032C716.399 38.032 709.103 45.84 709.103 56.848C709.103 67.984 716.399 75.792 726.767 75.792Z" fill="#E74646"/>
</svg>
